<?xml version="1.0" encoding="UTF-8"?>
<svg width="34px" height="37px" viewBox="0 0 34 37" version="1.1" xmlns="http://www.w3.org/2000/svg" xmlns:xlink="http://www.w3.org/1999/xlink">
    <!-- Generator: Sketch 59.1 (86144) - https://sketch.com -->
    <title>stopwatch</title>
    <desc>Created with Sketch.</desc>
    <g id="Page-1" stroke="none" stroke-width="1" fill="none" fill-rule="evenodd">
        <g id="landing-page" transform="translate(-67.000000, -49.000000)" fill-rule="nonzero">
            <g id="nav-bar">
                <g id="stopwatch" transform="translate(67.000000, 49.000000)">
                    <path d="M32.8980498,9.60503632 C33.8696942,9.60503632 34.3718842,8.43975369 33.6763635,7.75503723 L30.3683099,4.4980271 C29.9384905,4.07476754 29.2415019,4.07476754 28.8116825,4.4980271 C28.3817896,4.92128666 28.3817896,5.60737617 28.8116825,6.03063573 L29.6876157,6.89305327 L27.7873382,8.76400939 C25.3791456,6.61880536 21.916222,5.05187058 18.1000332,4.80457773 L18.1000332,2.16746183 L19.3384798,2.16746183 C19.9463631,2.16746183 20.4391581,1.68227066 20.4391581,1.08376705 C20.4391581,0.485263435 19.9463631,0 19.3384798,0 L14.6601566,0 C14.0522733,0 13.5594783,0.485191169 13.5594783,1.08369478 C13.5594783,1.6821984 14.0522733,2.16738957 14.6601566,2.16738957 L15.8986032,2.16738957 L15.8986032,4.8044332 C12.4422854,5.02845653 9.16733433,6.26990709 6.21210554,8.76386486 L4.31168123,6.89290874 L5.18710069,6.03099705 C5.61699352,5.6077375 5.61699352,4.92164799 5.18710069,4.49838843 C4.75728126,4.07512887 4.06029264,4.07512887 3.63047321,4.49838843 L0.322419623,7.75539856 C-0.107473208,8.17865811 -0.107473208,8.86474762 0.322419623,9.28800718 C0.752165657,9.71119447 1.44922767,9.71126674 1.8790471,9.28800718 L2.75505375,8.42551737 L4.65687262,10.2979911 C-1.20286686,17.0289526 -0.44048051,26.499864 5.42645198,32.2762694 C11.822952,38.574071 22.1747302,38.5750827 28.5721844,32.2762694 C34.4135743,26.5250124 35.2217611,17.1097455 29.3416903,10.298786 L31.2441698,8.4256619 C32.1432234,9.31069858 32.3259114,9.60503632 32.8980498,9.60503632 Z M6.76266489,22.1441279 C6.05525374,22.1441279 5.48142718,21.5791555 5.48142718,20.8819371 C5.48142718,20.1854413 6.05525374,19.6204689 6.76266489,19.6204689 C7.47081002,19.6204689 8.04463657,20.1854413 8.04463657,20.8819371 C8.04463657,21.5791555 7.47081002,22.1441279 6.76266489,22.1441279 Z M10.6672985,28.900816 C10.16687,29.3935228 9.35523353,29.3935228 8.8548051,28.900816 C8.35437667,28.4081092 8.35437667,27.6089963 8.8548051,27.1162895 C9.35523353,26.6235827 10.16687,26.6235827 10.6672985,27.1162895 C11.1677269,27.6089963 11.1677269,28.4081092 10.6672985,28.900816 Z M10.6672985,14.6476569 C10.16687,15.1403637 9.35523353,15.1403637 8.8548051,14.6476569 C8.35437667,14.1549501 8.35437667,13.3565599 8.8548051,12.8638531 C9.35523353,12.3711463 10.16687,12.3711463 10.6672985,12.8638531 C11.1677269,13.3565599 11.1677269,14.1549501 10.6672985,14.6476569 Z M16.9992815,32.2220702 C16.2918703,32.2220702 15.7180438,31.6570978 15.7180438,30.9606021 C15.7180438,30.2641063 16.2918703,29.6991339 16.9992815,29.6991339 C17.7066926,29.6991339 18.2805192,30.2641063 18.2805192,30.9606021 C18.2805192,31.6570978 17.7066926,32.2220702 16.9992815,32.2220702 Z M16.9992815,24.6056384 C14.9138205,24.6056384 13.2179568,22.9352193 13.2179568,20.8819371 C13.2179568,19.2057367 14.3487283,17.7846339 15.8985298,17.3201107 L15.8985298,10.5843796 C15.8985298,9.98616504 16.3916184,9.50068481 16.9992081,9.50068481 C17.6067978,9.50068481 18.0998864,9.98616504 18.0998864,10.5843796 L18.0998864,17.3201107 C19.6496878,17.7846339 20.7804594,19.205809 20.7804594,20.8819371 C20.7806062,22.9352915 19.0848159,24.6056384 16.9992815,24.6056384 L16.9992815,24.6056384 Z M25.1438313,28.900816 C24.6434028,29.3935228 23.8317663,29.3935228 23.3313379,28.900816 C22.8309095,28.4081092 22.8309095,27.6089963 23.3313379,27.1162895 C23.8317663,26.6235827 24.6434028,26.6235827 25.1438313,27.1162895 C25.6442597,27.6089963 25.6442597,28.4081092 25.1438313,28.900816 Z M25.1438313,14.6476569 C24.6434028,15.1403637 23.8317663,15.1403637 23.3313379,14.6476569 C22.8309095,14.1549501 22.8309095,13.3565599 23.3313379,12.8638531 C23.8317663,12.3711463 24.6434028,12.3711463 25.1438313,12.8638531 C25.6442597,13.3565599 25.6442597,14.1549501 25.1438313,14.6476569 Z M27.2358981,22.1441279 C26.5277529,22.1441279 25.9539264,21.5791555 25.9539264,20.8819371 C25.9539264,20.1854413 26.5277529,19.6204689 27.2358981,19.6204689 C27.9433092,19.6204689 28.5171358,20.1854413 28.5171358,20.8819371 C28.5171358,21.5791555 27.9433092,22.1441279 27.2358981,22.1441279 Z" id="Shape" fill="#EE8B00"></path>
                    <path d="M16.5,19 C15.6730314,19 15,19.6728751 15,20.4996516 C15,21.3271249 15.6730314,22 16.5,22 C17.3269686,22 18,21.3271249 18,20.4996516 C18,19.6728054 17.3269686,19 16.5,19 L16.5,19 Z" id="Path" fill="#CC7700"></path>
                </g>
            </g>
        </g>
    </g>
</svg>